<?xml version="1.0" encoding="utf-8"?>
<!-- Generator: Adobe Illustrator 17.0.0, SVG Export Plug-In . SVG Version: 6.00 Build 0)  -->
<!DOCTYPE svg PUBLIC "-//W3C//DTD SVG 1.1//EN" "http://www.w3.org/Graphics/SVG/1.1/DTD/svg11.dtd">
<svg version="1.1" id="Layer_1" focusable="false" xmlns="http://www.w3.org/2000/svg" xmlns:xlink="http://www.w3.org/1999/xlink"
	 x="0px" y="0px" width="252px" height="144px" viewBox="0 0 252 144" enable-background="new 0 0 252 144" xml:space="preserve">
<path fill="#C6C106" d="M99.315,101.99c-2.444-2.444-1.17-1.755-7.065-3.333c-2.675-0.717-5.026-2.095-7.152-3.746l-12.76,31.286
	c-1.235,3.029,1.072,6.32,4.34,6.196l14.819-0.565l10.193,10.766c2.25,2.374,6.199,1.634,7.433-1.395l14.639-35.893
	c-3.049,1.699-6.432,2.694-9.931,2.694C108.346,108,103.193,105.865,99.315,101.99z M179.662,126.197l-12.76-31.286
	c-2.126,1.654-4.478,3.029-7.152,3.746c-5.926,1.586-4.627,0.894-7.065,3.333c-3.878,3.876-9.034,6.01-14.518,6.01
	c-3.499,0-6.882-0.998-9.931-2.694l14.639,35.893c1.235,3.029,5.186,3.769,7.433,1.395l10.195-10.766l14.819,0.565
	C178.591,132.517,180.897,129.223,179.662,126.197z M145.969,95.625c4.298-4.373,4.79-3.997,10.91-5.664
	c3.907-1.066,6.961-4.174,8.007-8.151c2.104-7.987,1.558-7.023,7.298-12.867c2.86-2.911,3.977-7.155,2.931-11.132
	c-2.101-7.982-2.104-6.868,0-14.858c1.046-3.977-0.07-8.221-2.931-11.132c-5.74-5.844-5.195-4.882-7.298-12.867
	c-1.046-3.977-4.101-7.085-8.007-8.151c-7.841-2.14-6.896-1.581-12.642-7.428c-2.86-2.911-7.031-4.05-10.938-2.984
	c-7.838,2.137-6.744,2.14-14.597,0c-3.907-1.066-8.077,0.07-10.938,2.984c-5.74,5.844-4.795,5.287-12.639,7.428
	c-3.907,1.066-6.961,4.174-8.007,8.151c-2.101,7.985-1.558,7.023-7.298,12.867c-2.86,2.911-3.98,7.155-2.931,11.132
	c2.101,7.976,2.104,6.862,0,14.856c-1.046,3.977,0.07,8.221,2.931,11.135c5.74,5.844,5.195,4.88,7.298,12.867
	c1.046,3.977,4.101,7.085,8.007,8.151c6.294,1.716,6.764,1.446,10.907,5.664c3.721,3.788,9.518,4.466,13.989,1.637
	c3.65-2.317,8.311-2.317,11.962,0C136.451,100.091,142.248,99.413,145.969,95.625z M99.467,49.489
	c0-14.915,11.88-27.006,26.533-27.006s26.533,12.091,26.533,27.006S140.653,76.494,126,76.494S99.467,64.403,99.467,49.489z"/>
</svg>
